:SAMPLES-PER-SECOND 30
:FULLY-SPECIFIED
:DEGREES
245
root  1.05044 38.4495 -1.66779 0.10394 0.935303 0.131319
RightUpLeg  -28.007 -7.53583 6.6788
RightLeg  13.1886 0.372467 -2.70525
RightFoot  -1.07868 0.113756 -1.11078
RightToes  5.82077e-011 -3.18055e-015 -2.98177e-016
Spine  16.6207 -2.33034 -7.70719
Spine1  4.33346 -4.81543 7.29791
HEad  -14.1596 4.85494 4.29498
LeftShoulder1  -3.88251e-019 9.70628e-020 -3.87848e-018
LeftArm  -5.52913 23.2937 -74.712
LeftForeArm  -3.58863 -41.8015 9.99353
LeftHand  -1.48854 -10.0503 11.7408
RightShoulder  7.59888 10.8098 35.2724
RightArm  45.0282 -61.954 -21.4319
RightForeArm  21.484 17.9095 -6.71054
RightHand  -0.717119 6.23047 -7.21973
LeftUpLeg  2.39443 -2.6721 -10.1414
LeftLeg  18.5044 1.05711 6.47327
LeftFoot  -22.889 0.0839684 1.69663
LeftToes  1.39127e-010 -3.60802e-011 -7.31315e-011
246
root  0.94679 38.2533 -0.571641 -0.567706 1.26206 0.737057
RightUpLeg  -27.4303 -5.4054 4.80373
RightLeg  10.2973 -5.24411 -0.903937
RightFoot  -1.15649 0.18375 -1.7802
RightToes  5.82077e-011 -3.18055e-015 -2.98177e-016
Spine  14.649 -2.42665 -9.02973
Spine1  5.05544 -5.05021 7.86077
HEad  -12.1305 4.70236 4.64915
LeftShoulder1  -3.88251e-019 9.70628e-020 -3.87848e-018
LeftArm  -5.9712 22.3234 -75.2511
LeftForeArm  -4.40819 -40.866 9.60559
LeftHand  -1.5236 -9.97117 12.0695
RightShoulder  7.68725 10.7945 35.746
RightArm  35.5762 -61.2656 -18.6986
RightForeArm  27.2534 15.043 -4.77032
RightHand  -0.730816 5.60112 -7.75381
LeftUpLeg  5.82796 -4.08622 -11.0383
LeftLeg  17.0869 2.50849 6.52327
LeftFoot  -23.6623 0.100057 1.76965
LeftToes  1.39127e-010 -3.60802e-011 -7.31315e-011
247
root  0.840326 37.9494 0.59971 -0.20767 1.89904 1.01147
RightUpLeg  -28.76 -6.71352 5.43828
RightLeg  10.6745 -4.33441 -0.997055
RightFoot  -1.69382 0.22061 -2.21092
RightToes  5.82077e-011 -3.18055e-015 -2.98177e-016
Spine  12.0679 -2.79005 -9.80351
Spine1  5.78726 -5.53858 8.92374
HEad  -11.2399 4.6089 4.41503
LeftShoulder1  -3.88251e-019 9.70628e-020 -3.87848e-018
LeftArm  -6.52083 22.5003 -75.859
LeftForeArm  -4.87514 -39.8398 9.21576
LeftHand  -1.60505 -9.70084 12.9181
RightShoulder  7.68435 10.7455 35.8394
RightArm  28.8708 -60.3246 -15.1871
RightForeArm  28.5719 12.5578 -4.25184
RightHand  -0.668988 4.72206 -7.68462
LeftUpLeg  7.74199 -5.20907 -11.4762
LeftLeg  16.6822 3.27448 6.70947
LeftFoot  -25.2423 0.0910765 1.50884
LeftToes  1.39127e-010 -3.60802e-011 -7.31315e-011
248
root  0.70871 37.6236 1.77936 0.327345 3.16662 0.872295
RightUpLeg  -30.7055 -10.7897 8.06596
RightLeg  13.4904 0.253835 -2.68033
RightFoot  -1.50728 0.323062 -3.16151
RightToes  5.82077e-011 -3.18055e-015 -2.98177e-016
Spine  10.3049 -3.14048 -10.2454
Spine1  6.035 -6.23141 10.918
HEad  -11.0888 4.06365 3.85694
LeftShoulder1  -3.88251e-019 9.70628e-020 -3.87848e-018
LeftArm  -7.28832 23.7072 -76.9818
LeftForeArm  -4.84918 -38.5552 8.77592
LeftHand  -1.66814 -9.43021 13.6503
RightShoulder  7.61796 10.6868 35.6375
RightArm  25.2311 -59.2156 -12.3828
RightForeArm  26.3192 11.5007 -4.2593
RightHand  -0.542214 3.73076 -6.89172
LeftUpLeg  8.88882 -6.27542 -11.1568
LeftLeg  17.3114 3.13722 6.90179
LeftFoot  -26.9926 0.0202251 0.761262
LeftToes  1.39127e-010 -3.60802e-011 -7.31315e-011
249
root  0.538799 37.3665 2.97241 0.456122 4.70714 0.124429
RightUpLeg  -31.86 -14.0502 10.7948
RightLeg  16.8763 3.09592 -4.82333
RightFoot  -0.128708 0.591833 -5.19665
RightToes  5.82077e-011 -3.18055e-015 -2.98177e-016
Spine  9.60162 -3.21108 -9.93534
Spine1  5.96918 -6.70581 13.2278
HEad  -11.4652 2.88853 3.23096
LeftShoulder1  -3.88251e-019 9.70628e-020 -3.87848e-018
LeftArm  -7.52505 25.5313 -78.4865
LeftForeArm  -4.67709 -36.8141 8.21363
LeftHand  -1.66034 -9.41944 13.6001
RightShoulder  7.59206 10.6649 35.5564
RightArm  22.5387 -57.8691 -9.98473
RightForeArm  22.2884 11.3336 -4.24258
RightHand  -0.461173 2.71411 -6.58151
LeftUpLeg  10.0047 -7.09706 -9.80279
LeftLeg  18.7117 2.23952 6.98265
LeftFoot  -27.8823 -0.0276647 0.367179
LeftToes  1.39127e-010 -3.60802e-011 -7.31315e-011
250
root  0.340417 37.195 4.25515 0.500878 5.49136 -1.24638
RightUpLeg  -32.0197 -13.3303 12.1396
RightLeg  20.2405 1.66844 -6.91404
RightFoot  1.17222 0.915022 -7.35247
RightToes  5.82077e-011 -3.18055e-015 -2.98177e-016
Spine  8.54815 -2.99201 -8.17185
Spine1  6.39065 -6.51451 14.4194
HEad  -12.2934 1.58381 2.86875
LeftShoulder1  -3.88251e-019 9.70628e-020 -3.87848e-018
LeftArm  -6.42233 28.0431 -79.6901
LeftForeArm  -4.77784 -34.6482 7.53771
LeftHand  -1.54587 -9.45855 12.6537
RightShoulder  7.72652 10.7224 36.0997
RightArm  18.9305 -55.7883 -6.72596
RightForeArm  17.8105 10.6357 -4.07942
RightHand  -0.485783 1.76349 -7.78904
LeftUpLeg  10.9509 -6.46733 -7.26668
LeftLeg  20.6105 0.256531 6.77093
LeftFoot  -27.8493 -0.119303 -0.317211
LeftToes  1.39127e-010 -3.60802e-011 -7.31315e-011
